<svg width="66" height="66" viewBox="0 0 66 66" fill="none" xmlns="http://www.w3.org/2000/svg">
<path d="M15 0C6.75145 0 0 6.75145 0 15V51C0 59.2485 6.75145 66 15 66H51C59.2485 66 66 59.2485 66 51V15C66 6.75145 59.2485 0 51 0H15ZM15 6H51C56.0055 6 60 9.99455 60 15V51C60 56.0055 56.0055 60 51 60H15C9.99455 60 6 56.0055 6 51V15C6 9.99455 9.99455 6 15 6ZM32.666 12C20.5718 12.192 10.9268 22.6582 12.0996 35.0332C12.9756 44.2972 20.1259 52.0937 29.2969 53.6777C34.6189 54.5957 39.9046 53.5123 44.3086 50.6953L50.7422 51.3105C51.0692 51.3405 51.3464 51.0663 51.3164 50.7363L50.6953 44.3145C53.5093 39.9255 54.5925 34.6537 53.6895 29.3438C52.1325 20.1787 44.3672 13.0086 35.1152 12.0996C34.2897 12.0186 33.4723 11.9872 32.666 12ZM33 21C39.627 21 45 26.373 45 33C45 39.627 39.627 45 33 45C26.373 45 21 39.627 21 33C21 26.373 26.373 21 33 21ZM33 30C32.2044 30 31.4413 30.3161 30.8787 30.8787C30.3161 31.4413 30 32.2044 30 33C30 33.7956 30.3161 34.5587 30.8787 35.1213C31.4413 35.6839 32.2044 36 33 36C33.7956 36 34.5587 35.6839 35.1213 35.1213C35.6839 34.5587 36 33.7956 36 33C36 32.2044 35.6839 31.4413 35.1213 30.8787C34.5587 30.3161 33.7956 30 33 30Z" fill="white"/>
</svg>
